<?xml version="1.0" encoding="UTF-8"?>
<svg width="425px" height="200px" viewBox="0 0 125 50" version="1.1" xmlns="http://www.w3.org/2000/svg" xmlns:xlink="http://www.w3.org/1999/xlink">
    <title>Group 112</title>
    <defs>
        <polygon id="path-1" points="0.556983583 0.289835 10.5989 0.289835 10.5989 13.694135 0.556983583 13.694135"></polygon>
    </defs>
    <g id="Web" stroke="none" stroke-width="1" fill="none" fill-rule="evenodd">
        <g id="darkmode-copy" transform="translate(-19.000000, -11.000000)">
            <g id="Group-112" transform="translate(19.000000, 11.000000)">
                <path d="M27.98653,37.37448 C28.54163,37.42323 29.04798,37.39268 29.50688,37.28348 C29.96513,37.17493 30.36358,37.01243 30.70158,36.79468 C31.03958,36.57758 31.31713,36.28833 31.53423,35.92563 C31.75198,35.56423 31.89628,35.13003 31.96843,34.62368 C31.96843,34.18948 31.89628,33.77868 31.75198,33.39258 C31.60703,33.00648 31.38928,32.63208 31.10003,32.26938 C30.81013,31.90798 30.44873,31.56998 30.01388,31.25603 C29.57903,30.94273 29.08438,30.64048 28.52993,30.35123 C28.43243,30.30313 28.33623,30.25503 28.24003,30.20628 C28.14318,30.15818 28.04633,30.11008 27.95013,30.06198 C27.85328,30.01388 27.75643,29.96578 27.66088,29.91638 C27.56403,29.86828 27.46718,29.82018 27.37098,29.77208 L27.29883,29.77208 C27.27413,29.77208 27.25658,29.76623 27.24423,29.75323 C27.23188,29.74218 27.22668,29.72333 27.22668,29.69928 C26.21268,29.21698 25.24028,28.70998 24.31208,28.17893 C23.38258,27.64853 22.49533,27.09343 21.65098,26.51363 C20.83003,25.93383 20.20863,25.25848 19.78678,24.48628 C19.36363,23.71343 19.15303,22.84438 19.15303,21.87913 L19.15303,21.82518 L19.15303,21.77058 L19.15303,21.66203 L19.15303,21.58988 L19.15303,21.53528 L19.15303,21.48133 C19.15303,20.56418 19.27978,19.75623 19.53328,19.05553 C19.78678,18.35548 20.17808,17.77698 20.70913,17.31808 C21.24018,16.83513 21.79593,16.43668 22.37508,16.12338 C22.95423,15.80943 23.56978,15.58063 24.22108,15.43503 C24.31728,15.41163 24.41413,15.39343 24.51098,15.38108 C24.60718,15.36938 24.70403,15.35053 24.80023,15.32648 C24.84833,15.32648 24.89643,15.32063 24.94518,15.30893 C24.99393,15.29658 25.05373,15.27838 25.12653,15.25433 C25.17463,15.25433 25.22273,15.24848 25.27148,15.23548 C25.31958,15.22443 25.36703,15.21793 25.41643,15.21793 L34.24993,15.14578 L34.24993,18.29503 L25.99558,18.29503 C25.48858,18.34443 25.03618,18.43998 24.63773,18.58493 C24.23928,18.72923 23.89543,18.94698 23.60618,19.23688 C23.31628,19.52613 23.09918,19.82838 22.95423,20.14168 C22.80928,20.45563 22.71243,20.78193 22.66433,21.11928 C22.66433,21.14333 22.65198,21.16738 22.62858,21.19208 L22.62858,21.24603 L22.62858,21.30063 L22.62858,21.37278 L22.62858,21.42738 L22.62858,21.48133 C22.62858,21.69843 22.64678,21.90383 22.68253,22.09688 C22.71893,22.28993 22.78523,22.48298 22.88143,22.67603 C22.97763,22.84438 23.09918,23.00168 23.24348,23.14663 C23.38843,23.29158 23.54508,23.41248 23.71473,23.50868 C24.26983,23.89543 24.80608,24.24513 25.32543,24.55843 C25.84413,24.87303 26.33293,25.14993 26.79183,25.39108 C27.27413,25.63353 27.73303,25.86818 28.16723,26.09698 C28.60143,26.32708 29.03628,26.55003 29.47113,26.76713 C29.59073,26.83928 29.70578,26.90623 29.81498,26.96603 C29.92353,27.02648 30.02623,27.08043 30.12243,27.12853 C30.16988,27.15323 30.22513,27.18313 30.28493,27.21953 C30.34538,27.25593 30.41168,27.28648 30.48448,27.31053 C30.53258,27.35863 30.58653,27.39438 30.64763,27.41843 C30.70808,27.44313 30.76203,27.46783 30.81013,27.49123 C30.88293,27.53998 30.96093,27.59393 31.04608,27.65438 C31.12993,27.71418 31.22028,27.76878 31.31713,27.81688 C31.38928,27.86498 31.47378,27.91958 31.57063,27.97938 C31.66683,28.04113 31.76368,28.09508 31.85988,28.14253 C32.29473,28.43178 32.71138,28.77043 33.10918,29.15653 C33.50763,29.54263 33.88788,29.97683 34.24993,30.45913 C34.61133,30.94273 34.88888,31.48548 35.08258,32.08868 C35.27563,32.69253 35.37248,33.34383 35.37248,34.04388 C35.37248,34.21353 35.36598,34.39423 35.35363,34.58728 C35.34128,34.78098 35.32308,34.97338 35.29968,35.16643 C35.27563,35.35883 35.25093,35.55838 35.22753,35.76313 C35.20348,35.96853 35.16643,36.16808 35.11898,36.36048 C34.97403,36.89283 34.75628,37.39918 34.46703,37.88083 C34.17713,38.36378 33.80273,38.82333 33.34448,39.25688 C32.88558,39.69108 32.28888,40.01218 31.55243,40.21693 C30.81598,40.42168 29.92938,40.52503 28.89198,40.52503 L28.81918,40.52503 L28.74638,40.52503 L28.67423,40.52503 L28.60143,40.52503 L28.51173,40.52503 L28.42073,40.52503 L28.34858,40.52503 L28.27578,40.52503 L18.86313,40.52503 L18.86313,37.37448 L27.98653,37.37448 Z" id="Fill-1" fill="#FEFEFE"></path>
                <path d="M37.85236,23.50868 C38.27421,22.20543 38.85921,21.11928 39.60801,20.25023 C40.38021,19.38118 41.16996,18.63953 41.97921,18.02398 C42.78781,17.40843 43.63801,16.91963 44.53111,16.55758 C45.15901,16.29173 45.76221,16.08113 46.34201,15.92383 C46.92116,15.76718 47.48796,15.64108 48.04371,15.54358 C48.59881,15.47143 49.10516,15.40513 49.56406,15.34468 C50.02231,15.28488 50.43311,15.24198 50.79451,15.21793 L53.07536,15.14578 L53.07536,18.29503 L51.08441,18.29503 C49.53936,18.41658 48.18216,18.66358 47.01151,19.03733 C45.84086,19.41173 44.84506,19.94863 44.02476,20.64868 C43.20381,21.32468 42.54016,22.03058 42.03381,22.76638 C41.52681,23.50283 41.16476,24.26918 40.94766,25.06543 C40.92296,25.13758 40.90541,25.20453 40.89371,25.26433 C40.88071,25.32543 40.87486,25.38003 40.87486,25.42748 C40.85081,25.49963 40.83261,25.56658 40.82091,25.62703 C40.80856,25.68748 40.80271,25.74143 40.80271,25.79018 L53.07536,25.71673 L53.07536,28.83088 L40.80271,28.83088 C40.80271,29.09673 40.81441,29.34373 40.83846,29.57253 C40.86251,29.80263 40.91126,30.04963 40.98341,30.31548 C41.05621,30.55728 41.14071,30.80428 41.23691,31.05713 C41.33311,31.31063 41.42996,31.56998 41.52681,31.83583 C41.86416,32.53588 42.29316,33.21123 42.81186,33.86253 C43.33056,34.51448 43.92791,35.13003 44.60391,35.70983 C45.30396,36.28833 46.03391,36.72253 46.79441,37.01243 C47.55426,37.30298 48.36936,37.44663 49.23776,37.44663 L49.29301,37.44663 L49.34696,37.44663 L49.45551,37.44663 L49.52766,37.44663 L49.58161,37.44663 L49.63621,37.44663 L53.07536,37.37448 L53.07536,40.52503 L50.21536,40.52503 L49.90791,40.52503 L49.60046,40.52503 L49.27416,40.52503 L48.94851,40.52503 C48.73076,40.50098 48.51431,40.47043 48.29656,40.43403 C48.07946,40.39698 47.87406,40.36773 47.68166,40.34303 C46.35371,40.07783 45.08036,39.60788 43.86226,38.93188 C42.64286,38.25588 41.49041,37.39918 40.40426,36.36048 C39.29406,35.29968 38.46726,34.08028 37.92386,32.70358 C37.38111,31.32883 37.10941,29.78443 37.10941,28.07038 L37.10941,27.99823 C37.18221,26.30888 37.42921,24.81193 37.85236,23.50868" id="Fill-3" fill="#FEFEFE"></path>
                <path d="M56.18821,18.5848 C56.18821,18.0544 56.27271,17.5708 56.44171,17.1366 C56.61006,16.7024 56.85186,16.328 57.16581,16.0147 C57.50316,15.7248 57.85936,15.5025 58.23376,15.3452 C58.60816,15.1879 58.99946,15.09755 59.41026,15.0735 C59.72356,15.0735 60.02581,15.11575 60.31571,15.1996 C60.60496,15.28475 60.89486,15.42385 61.18476,15.6169 C61.44996,15.78525 61.69111,16.00235 61.90886,16.2682 C62.12531,16.53405 62.31901,16.8467 62.48801,17.2094 L71.32151,35.67265 L71.32151,15.14565 L74.72426,15.14565 L74.72426,38.8232 C74.72426,39.234 74.66381,39.58305 74.54356,39.87295 C74.42266,40.1622 74.24196,40.3793 74.00081,40.5249 C73.75966,40.69325 73.49901,40.81935 73.22276,40.90385 C72.94456,40.989 72.64881,41.03125 72.33486,41.03125 L72.24516,41.03125 L72.11776,41.03125 L72.04561,41.03125 C72.02156,41.00655 72.00336,40.99485 71.99166,40.99485 L71.93706,40.99485 C71.64781,40.97015 71.37611,40.9162 71.12196,40.83235 C70.86846,40.74785 70.60911,40.6445 70.34391,40.5249 C70.10276,40.4274 69.89671,40.28895 69.72901,40.1076 C69.56001,39.9269 69.42676,39.7163 69.33056,39.4745 L59.91726,19.99725 L59.91726,40.5249 L56.18821,40.5249 L56.18821,18.5848 Z" id="Fill-5" fill="#FEFEFE"></path>
                <path d="M86.70805,37.37448 C87.26315,37.42323 87.77015,37.39268 88.2284,37.28348 C88.68665,37.17493 89.0851,37.01243 89.4231,36.79468 C89.76045,36.57758 90.03865,36.28833 90.25575,35.92563 C90.4735,35.56423 90.6178,35.13003 90.68995,34.62368 C90.68995,34.18948 90.6178,33.77868 90.4735,33.39258 C90.3279,33.00648 90.1108,32.63208 89.82155,32.26938 C89.53165,31.90798 89.1696,31.56998 88.7354,31.25603 C88.30055,30.94273 87.80525,30.64048 87.25145,30.35123 C87.1546,30.30313 87.0571,30.25503 86.96155,30.20628 C86.8647,30.15818 86.7685,30.11008 86.671,30.06198 C86.5748,30.01388 86.47795,29.96578 86.38175,29.91638 L86.0925,29.77208 L86.02035,29.77208 C85.99565,29.77208 85.9781,29.76623 85.9651,29.75323 C85.9534,29.74218 85.94755,29.72333 85.94755,29.69928 C84.9342,29.21698 83.9618,28.70998 83.0336,28.17893 C82.10345,27.64853 81.21685,27.09343 80.3725,26.51363 C79.55155,25.93383 78.9295,25.25848 78.5083,24.48628 C78.08515,23.71343 77.87455,22.84438 77.87455,21.87913 L77.87455,21.82518 L77.87455,21.77058 L77.87455,21.66203 L77.87455,21.58988 L77.87455,21.53528 L77.87455,21.48133 C77.87455,20.56418 78.0013,19.75623 78.2548,19.05553 C78.5083,18.35548 78.8996,17.77698 79.43065,17.31808 C79.9617,16.83513 80.51745,16.43668 81.0966,16.12338 C81.67575,15.80943 82.29065,15.58063 82.9426,15.43503 C83.0388,15.41163 83.1363,15.39343 83.2325,15.38108 C83.3287,15.36938 83.4249,15.35053 83.5224,15.32648 C83.5705,15.32648 83.61795,15.32063 83.6667,15.30893 C83.71545,15.29658 83.77525,15.27838 83.84805,15.25433 C83.89615,15.25433 83.9436,15.24848 83.99235,15.23548 C84.04045,15.22443 84.0892,15.21793 84.13795,15.21793 L92.97145,15.14578 L92.97145,18.29503 L84.7171,18.29503 C84.2101,18.34443 83.7577,18.43998 83.35925,18.58493 C82.9608,18.72923 82.61695,18.94698 82.3277,19.23688 C82.03715,19.52613 81.8207,19.82838 81.67575,20.14168 C81.5308,20.45563 81.4346,20.78193 81.3865,21.11928 C81.3865,21.14333 81.3735,21.16738 81.3501,21.19208 L81.3501,21.24603 L81.3501,21.30063 L81.3501,21.37278 L81.3501,21.42738 L81.3501,21.48133 C81.3501,21.69843 81.3683,21.90383 81.40405,22.09688 C81.44045,22.28993 81.50675,22.48298 81.60295,22.67603 C81.69915,22.84438 81.8207,23.00168 81.965,23.14663 C82.10995,23.29158 82.2666,23.41248 82.43625,23.50868 C82.9907,23.89543 83.5276,24.24513 84.04695,24.55843 C84.56565,24.87303 85.05445,25.14993 85.5127,25.39108 C85.99565,25.63353 86.45455,25.86818 86.88875,26.09698 C87.32295,26.32708 87.7578,26.55003 88.192,26.76713 C88.3129,26.83928 88.42795,26.90623 88.5365,26.96603 C88.6444,27.02648 88.74775,27.08043 88.84395,27.12853 C88.8914,27.15323 88.946,27.18313 89.00645,27.21953 C89.0669,27.25593 89.1332,27.28648 89.206,27.31053 C89.2541,27.35863 89.30805,27.39438 89.36915,27.41843 C89.4296,27.44313 89.48355,27.46783 89.53165,27.49123 C89.6038,27.53998 89.68245,27.59393 89.7676,27.65438 C89.85145,27.71418 89.9418,27.76878 90.03865,27.81688 C90.1108,27.86498 90.1953,27.91958 90.29215,27.97938 C90.38835,28.04113 90.4852,28.09508 90.5814,28.14253 C91.01625,28.43178 91.4329,28.77043 91.8307,29.15653 C92.22915,29.54263 92.6094,29.97683 92.97145,30.45913 C93.33285,30.94273 93.6104,31.48548 93.80345,32.08868 C93.99715,32.69253 94.09335,33.34383 94.09335,34.04388 C94.09335,34.21353 94.0875,34.39423 94.07515,34.58728 C94.0628,34.78098 94.0446,34.97338 94.0212,35.16643 C93.99715,35.35883 93.97245,35.55838 93.94905,35.76313 C93.925,35.96853 93.88795,36.16808 93.8405,36.36048 C93.69555,36.89283 93.4778,37.39918 93.18855,37.88083 C92.89865,38.36378 92.52425,38.82333 92.066,39.25688 C91.6071,39.69108 91.00975,40.01218 90.27395,40.21693 C89.53815,40.42168 88.65025,40.52503 87.6135,40.52503 L87.5407,40.52503 L87.4679,40.52503 L87.39575,40.52503 L87.32295,40.52503 L87.23325,40.52503 L87.14225,40.52503 L87.0701,40.52503 L86.9973,40.52503 L77.58465,40.52503 L77.58465,37.37448 L86.70805,37.37448 Z" id="Fill-7" fill="#FEFEFE"></path>
                <path d="M96.573555,23.50868 C96.995405,22.20543 97.581055,21.11928 98.329205,20.25023 C99.102055,19.38118 99.891805,18.63953 100.701055,18.02398 C101.509655,17.40843 102.359205,16.91963 103.252955,16.55758 C103.880205,16.29173 104.484055,16.08113 105.063205,15.92383 C105.642355,15.76718 106.209155,15.64108 106.764905,15.54358 C107.320005,15.47143 107.826355,15.40513 108.285255,15.34468 C108.743505,15.28488 109.153655,15.24198 109.515705,15.21793 L111.797205,15.14578 L111.797205,18.29503 L109.805605,18.29503 C108.260555,18.41658 106.903355,18.66358 105.733355,19.03733 C104.562055,19.41173 103.566255,19.94863 102.745955,20.64868 C101.925005,21.32468 101.262005,22.03058 100.755655,22.76638 C100.248005,23.50283 99.885955,24.26918 99.669505,25.06543 C99.644805,25.13758 99.626605,25.20453 99.614905,25.26433 C99.601905,25.32543 99.596055,25.38003 99.596055,25.42748 C99.572005,25.49963 99.554455,25.56658 99.542105,25.62703 C99.530405,25.68748 99.523905,25.74143 99.523905,25.79018 L111.797205,25.71673 L111.797205,28.83088 L99.523905,28.83088 C99.523905,29.09673 99.536255,29.34373 99.560305,29.57253 C99.584355,29.80263 99.632455,30.04963 99.704605,30.31548 C99.777405,30.55728 99.861905,30.80428 99.958105,31.05713 C100.054305,31.31063 100.151805,31.56998 100.248005,31.83583 C100.586005,32.53588 101.014355,33.21123 101.533705,33.86253 C102.052405,34.51448 102.649755,35.13003 103.325755,35.70983 C104.025805,36.28833 104.755755,36.72253 105.515605,37.01243 C106.276105,37.30298 107.091205,37.44663 107.959605,37.44663 L108.014205,37.44663 L108.068805,37.44663 L108.176705,37.44663 L108.249505,37.44663 L108.303455,37.44663 L108.357405,37.44663 L111.797205,37.37448 L111.797205,40.52503 L108.937205,40.52503 L108.629105,40.52503 L108.321655,40.52503 L107.995355,40.52503 L107.669705,40.52503 C107.452605,40.50098 107.235505,40.47043 107.017755,40.43403 C106.800655,40.39698 106.595905,40.36773 106.402855,40.34303 C105.074905,40.07783 103.801555,39.60788 102.583455,38.93188 C101.364055,38.25588 100.212255,37.39918 99.126105,36.36048 C98.015905,35.29968 97.188455,34.08028 96.645705,32.70358 C96.102955,31.32883 95.831255,29.78443 95.831255,28.07038 L95.831255,27.99823 C95.904055,26.30888 96.151055,24.81193 96.573555,23.50868" id="Fill-9" fill="#FEFEFE"></path>
                <g id="Group-13" transform="translate(113.750000, 3.172975)">
                    <mask id="mask-2" fill="white">
                        <use xlink:href="#path-1"></use>
                    </mask>
                    <g id="Clip-12"></g>
                    <path d="M5.080985,13.694135 C4.746235,13.615485 4.406285,13.555035 4.078685,13.454935 C1.934985,12.799735 0.451685,10.701535 0.562835,8.460335 C0.620035,7.298785 1.074385,6.263985 1.735435,5.333185 C2.577185,4.144985 3.476785,2.998385 4.341935,1.825785 C4.624035,1.443585 4.871685,1.036035 5.142085,0.646035 C5.229835,0.518635 5.338385,0.408135 5.438485,0.289835 L5.736185,0.289835 C5.809635,0.365235 5.894135,0.434135 5.955885,0.518635 C6.841185,1.724385 7.718035,2.934685 8.605285,4.137835 C9.292985,5.071235 9.970285,6.009835 10.342085,7.126535 C11.333335,10.108085 9.350835,13.247585 6.226935,13.642785 C6.180785,13.648635 6.137885,13.677235 6.094335,13.694135 L5.080985,13.694135 Z" id="Fill-11" fill="#FEFEFE" mask="url(#mask-2)"></path>
                </g>
                <path d="M10.1582,24.0279 L10.1582,13.1729 C10.1582,13.11115 10.16015,13.05135 10.15755,12.99155 C10.14455,12.62365 9.906,12.376 9.5394,12.3721 C8.89135,12.3669 8.24265,12.3669 7.5946,12.3721 C7.28065,12.376 7.0395,12.5827 6.98945,12.87715 C6.9732,12.9701 6.9797,13.06825 6.9797,13.16315 C6.9797,20.3853 6.97775,27.6068 6.9862,34.82895 C6.9862,35.0766 6.9134,35.22155 6.71905,35.37105 C5.7681,36.10165 5.3404,37.0812 5.4808,38.27135 C5.68555,40.00815 7.3294,41.2243 9.0636,40.95455 C10.83355,40.67895 12.0224,38.9103 11.6103,37.1696 C11.41725,36.35515 10.9564,35.72595 10.2752,35.2534 C10.1868,35.1923 10.15625,35.126 10.15625,35.01875 C10.15885,31.3547 10.1582,27.69065 10.1582,24.0279 M8.14905,41.76185 C7.99175,41.6962 7.8221,41.6949 7.6596,41.6546 C6.07035,41.25745 4.88735,39.9308 4.71445,38.3032 C4.5708,36.94405 5.03685,35.81045 6.0632,34.9102 C6.1763,34.8114 6.2192,34.7165 6.2192,34.5683 C6.21595,27.4079 6.21595,20.2475 6.21595,13.08645 C6.21595,12.31815 6.56825,11.8495 7.30795,11.6337 C7.32095,11.63045 7.3294,11.6155 7.34045,11.60705 L9.78315,11.60705 C9.97295,11.67725 10.17185,11.72665 10.33825,11.8508 C10.7289,12.1381 10.9278,12.52485 10.9278,13.0104 C10.92845,15.6572 10.9278,18.30465 10.9278,20.9534 C10.9278,25.50405 10.92845,30.05535 10.9252,34.60795 C10.9252,34.72755 10.95705,34.80295 11.0513,34.8855 C12.2525,35.9463 12.7192,37.27685 12.3266,38.82775 C11.93985,40.3559 10.9174,41.3049 9.37755,41.6767 C9.2365,41.71115 9.09415,41.74105 8.94725,41.73715 C8.8907,41.76055 8.83285,41.76575 8.7724,41.7646346 C8.5644,41.76185 8.35705,41.76315 8.14905,41.76185" id="Fill-14" fill="#FEFEFE"></path>
                <path d="M13.85982,24.58079 C13.31707,24.58079 12.77432,24.58079 12.23222,24.57949 C12.14122,24.57949 12.05282,24.57819 11.96442,24.54894 C11.70767,24.46639 11.55362,24.27659 11.56207,24.05039 C11.57052,23.83654 11.75707,23.63569 12.00602,23.58239 C12.08857,23.56484 12.17502,23.55899 12.26017,23.55899 C13.32487,23.55639 14.39022,23.55769 15.45427,23.55769 C15.64992,23.55769 15.83387,23.59279 15.98532,23.72799 C16.21087,23.93144 16.20307,24.24344 15.96517,24.43324 C15.83062,24.54049 15.67462,24.58209 15.50237,24.58079 C14.95572,24.57819 14.40777,24.57949 13.85982,24.58079" id="Fill-16" fill="#FEFEFE"></path>
                <path d="M13.847405,14.98757 C13.300105,14.98757 12.752805,14.98627 12.204855,14.98757 C12.049505,14.98887 11.907155,14.95312 11.779755,14.86407 C11.494405,14.66452 11.484655,14.31612 11.760255,14.10422 C11.892205,14.00087 12.046255,13.96252 12.211355,13.96252 C13.307255,13.96252 14.401855,13.96252 15.497755,13.96382 C15.683655,13.96382 15.854605,14.01192 15.994355,14.14257 C16.207555,14.34212 16.201705,14.63917 15.978105,14.82767 C15.842905,14.94337 15.683005,14.98887 15.506205,14.98757 C14.953055,14.98627 14.400555,14.98757 13.847405,14.98757" id="Fill-18" fill="#FEFEFE"></path>
                <path d="M13.855075,34.17466 C13.323375,34.17466 12.791025,34.17466 12.258025,34.17336 C12.163125,34.17336 12.068225,34.17466 11.975275,34.14541 C11.702275,34.06026 11.542375,33.86136 11.563175,33.62541 C11.582675,33.40311 11.795875,33.20356 12.054575,33.16976 C12.119575,33.16001 12.184575,33.15936 12.250225,33.15936 C13.319475,33.15936 14.389375,33.15806 15.459275,33.15936 C15.539225,33.15936 15.621125,33.16001 15.699125,33.17691 C15.968875,33.23346 16.154125,33.44796 16.146975,33.68586 C16.139825,33.91466 15.929875,34.12331 15.662725,34.16426 C15.599025,34.17336 15.532725,34.17336 15.467075,34.17336 C14.930175,34.17466 14.392625,34.17466 13.855075,34.17466" id="Fill-20" fill="#FEFEFE"></path>
                <path d="M12.89054,29.377075 C12.58439,29.377075 12.27824,29.372525 11.97274,29.378375 C11.80374,29.382275 11.69519,29.300375 11.62759,29.159975 C11.53724,28.975375 11.53529,28.782975 11.61979,28.593175 C11.68999,28.437825 11.80569,28.354625 11.98379,28.355275 C12.59609,28.357875 13.20839,28.362425 13.82069,28.353325 C14.13009,28.349425 14.25359,28.669875 14.23864,28.904525 C14.21784,29.236675 14.06444,29.377075 13.73294,29.377075 L12.89054,29.377075 Z" id="Fill-22" fill="#FEFEFE"></path>
                <path d="M12.893075,19.783205 C12.586275,19.783205 12.280125,19.779305 11.973325,19.785155 C11.812125,19.789055 11.704875,19.715605 11.635325,19.581055 C11.531975,19.380855 11.532625,19.174805 11.631425,18.974605 C11.701625,18.832905 11.816025,18.757505 11.980475,18.758805 C12.593425,18.761405 13.205725,18.761405 13.818675,18.758805 C13.989625,18.757505 14.105325,18.838105 14.175525,18.986955 C14.260025,19.168955 14.264575,19.356805 14.184625,19.540105 C14.115075,19.700655 14.000025,19.791655 13.811525,19.786455 C13.505375,19.776705 13.199225,19.783205 12.893075,19.783205" id="Fill-24" fill="#FEFEFE"></path>
                <path d="M12.89938,21.164455 L13.74308,21.164455 C14.08043,21.164455 14.26503,21.364655 14.24033,21.706555 C14.21628,22.041305 14.05768,22.188205 13.72163,22.188205 L12.01928,22.188205 C11.77553,22.188205 11.65333,22.092655 11.58703,21.855405 C11.54283,21.700055 11.55128,21.548605 11.61888,21.401055 C11.68908,21.246355 11.79893,21.157955 11.98028,21.161855 C12.28708,21.169005 12.59323,21.164455 12.89938,21.164455" id="Fill-26" fill="#FEFEFE"></path>
                <path d="M12.88924,16.366285 L13.73294,16.366285 C14.06444,16.366285 14.21524,16.507985 14.23994,16.839485 C14.26594,17.183335 14.07354,17.391985 13.73164,17.391985 L12.08974,17.391985 C11.69389,17.391985 11.48264,17.118335 11.57689,16.727035 C11.63994,16.463785 11.76279,16.366285 12.03059,16.366285 L12.88924,16.366285 Z" id="Fill-28" fill="#FEFEFE"></path>
                <path d="M12.90419,30.757025 C13.18044,30.757025 13.45604,30.757025 13.73229,30.755725 C14.07029,30.755725 14.24774,30.937075 14.24189,31.275725 C14.23669,31.612425 14.06704,31.780125 13.73099,31.780125 L12.08974,31.780125 C11.69129,31.780125 11.48329,31.511025 11.57689,31.117775 C11.63799,30.861025 11.76864,30.757025 12.03059,30.757025 C12.32179,30.755725 12.61299,30.757025 12.90419,30.757025" id="Fill-30" fill="#FEFEFE"></path>
                <path d="M12.901005,25.959505 L13.730405,25.959505 C14.058005,25.959505 14.203605,26.090155 14.239355,26.415155 C14.276405,26.761605 14.078805,26.984555 13.734305,26.984555 L12.091755,26.984555 C11.690055,26.984555 11.478155,26.705055 11.580205,26.309205 C11.644555,26.057005 11.769355,25.960805 12.027405,25.959505 L12.901005,25.959505 Z" id="Fill-32" fill="#FEFEFE"></path>
                <path d="M9.687795,28.26811 C9.687795,30.59056 9.689095,32.91301 9.685195,35.23416 C9.685195,35.35896 9.721595,35.43436 9.821695,35.50651 C10.119395,35.72101 10.414495,35.93811 10.644595,36.23126 C11.893245,37.81986 10.970895,40.17546 8.974745,40.49331 C7.520695,40.72341 6.103045,39.64896 5.948995,38.18906 C5.843695,37.18351 6.208995,36.37426 6.996795,35.74701 C7.149545,35.62546 7.368595,35.54551 7.440095,35.37781 C7.509645,35.21531 7.457645,35.00211 7.457645,34.81101 L7.457645,21.31766 C7.457645,20.80351 7.735845,20.39336 8.186945,20.23346 C8.932495,19.96891 9.685845,20.50321 9.687795,21.30336 C9.689745,22.79056 9.687795,24.27776 9.687795,25.76561 L9.687795,28.26811 Z" id="Fill-34" fill="#FEFEFE"></path>
                <path d="M9.63131,0.2223 C9.63586,0.234 9.64041,0.2457 9.64691,0.25675 C9.75546,0.44135 9.76261,0.62985 9.65796,0.8164 C9.55396,1.001 9.38821,1.08485 9.17826,1.0959 C8.82856,1.1128 8.47691,1.118 8.12916,1.15895 C6.82461,1.31755 5.63251,1.7745 4.55286,2.52395 C3.96461,2.9302 3.44006,3.4073 2.98181,3.9546 C1.92686,5.213 1.31196,6.6599 1.14036,8.294 C1.11306,8.5514 1.10526,8.8127 1.09616,9.0727 C1.08836,9.29045 1.00516,9.4627 0.81211,9.5693 C0.61971,9.67525 0.42731,9.6629 0.24206,9.5446 C0.23426,9.5394 0.22581,9.5394 0.21801,9.53615 C0.17706,9.49585 0.13676,9.45425 0.09711,9.4133 C0.02756,9.2885 -0.00234,9.15525 0.00026,9.0103 C0.01456,8.36875 0.08411,7.73435 0.22646,7.1084 C0.57031,5.5978 1.25541,4.2601 2.27916,3.0966 C2.35001,3.01665 2.42021,2.9341 2.49106,2.85285 C2.63536,2.70985 2.77966,2.5675 2.92396,2.42385 C2.94996,2.40435 2.97791,2.38615 3.00196,2.3634 C3.48361,1.924 4.00816,1.5405 4.57366,1.2155 C5.93411,0.4342 7.40116,0.0351 8.96831,0.00195 C9.15746,-0.00325 9.34271,-0.0065 9.51041,0.1001 C9.55071,0.13975 9.59101,0.18135 9.63131,0.2223" id="Fill-36" fill="#FEFEFE"></path>
                <path d="M9.52471,2.316405 C9.71451,2.507505 9.76521,2.738255 9.67746,2.942355 C9.58256,3.161405 9.40901,3.271255 9.17046,3.281655 C8.93061,3.293355 8.68945862,3.297255 8.45091,3.323255 C7.42976,3.440255 6.50221,3.799705 5.67736,4.412005 C4.55026,5.247255 3.80666,6.345755 3.45826,7.706855 C3.34126,8.159255 3.28666,8.621405 3.28211,9.089405 C3.27886,9.417005 3.03186,9.662055 2.71661,9.650355 C2.41826,9.638655 2.18881,9.398805 2.18945862,9.096555 C2.19141,8.490755 2.27201,7.895355 2.42996,7.311005 C2.66721,6.431555 3.05656,5.624255 3.62011,4.909905 C4.90646,3.279055 6.58541,2.368405 8.66216,2.205905 C8.83311,2.192905 9.00601,2.191605 9.17826,2.18899958 C9.32646,2.188355 9.45256,2.246205 9.52471,2.316405" id="Fill-38" fill="#FEFEFE"></path>
                <path d="M6.48765,6.595355 C5.85325,7.246005 5.486,8.100105 5.4691,9.103055 C5.46455,9.323405 5.3703,9.493705 5.17855,9.595755 C4.992,9.696505 4.8022,9.688055 4.62475,9.572355 C4.4564,9.462505 4.37255,9.300005 4.37515,9.096555 C4.38295,8.368555 4.54415,7.676305 4.86785,7.021755 C5.1454,6.462105 5.52045,5.974605 5.9904,5.563155 C6.89195,4.776005 7.94625,4.381455 9.1442,4.37555938 C9.3808,4.373005 9.5576,4.481555 9.6564,4.695405 C9.75455,4.907955 9.71815,5.110755 9.56475,5.287555 C9.4536,5.413655 9.3093,5.468255 9.14095,5.468255 C8.4903,5.468905 7.87995,5.628155 7.3138,5.952505 C7.0486,6.102655 6.7743,6.312605 6.48765,6.595355" id="Fill-40" fill="#FEFEFE"></path>
                <path d="M9.74051,7.417995 C10.37556,8.060195 10.37036,9.096295 9.72816,9.733295 C9.08596,10.367695 8.05051,10.361845 7.41416,9.719645 C6.77846,9.077445 6.78496,8.041345 7.42716,7.406295 C8.06936,6.771245 9.10481,6.777095 9.74051,7.417995" id="Fill-42" fill="#FEFEFE"></path>
                <path d="M118.917305,11.571885 L119.261805,11.571885 C119.697955,11.571885 119.956655,11.353485 119.956655,11.015485 C119.956655,10.664485 119.715505,10.480535 119.312505,10.480535 C119.100605,10.480535 118.980355,10.492235 118.917305,10.510435 L118.917305,11.571885 Z M118.050205,9.913735 C118.331655,9.861085 118.744405,9.826635 119.215655,9.826635 C119.789605,9.826635 120.191305,9.913735 120.467555,10.137335 C120.702205,10.319985 120.828955,10.590385 120.828955,10.945935 C120.828955,11.434085 120.478605,11.773385 120.145805,11.893635 L120.145805,11.910535 C120.415555,12.019085 120.564405,12.272585 120.662555,12.627485 C120.782805,13.070135 120.897855,13.576485 120.972605,13.725335 L120.076905,13.725335 C120.019055,13.616135 119.921555,13.299585 119.813005,12.823785 C119.704455,12.335635 119.537405,12.209535 119.175355,12.203685 L118.917305,12.203685 L118.917305,13.725335 L118.050205,13.725335 L118.050205,9.913735 Z" id="Fill-44" fill="#009985"></path>
                <path d="M122.42633,11.77631 C122.42633,13.43771 121.08083,14.78321 119.41943,14.78321 C117.75803,14.78321 116.41253,13.43771 116.41253,11.77631 C116.41253,10.11491 117.75803,8.76941 119.41943,8.76941 C121.08083,8.76941 122.42633,10.11491 122.42633,11.77631 Z" id="Stroke-46" stroke="#009985" stroke-width="0.65"></path>
                <path d="M21.221525,44.54541 C21.093475,44.54541 20.896525,44.53436 20.630675,44.51421 C20.371325,44.49536 20.175025,44.48626 20.039825,44.48821 L19.855875,44.48821 C19.861075,44.72676 19.884475,45.11351 19.926075,45.64911 C19.963775,46.14831 19.982625,46.53636 19.982625,46.81196 C19.982625,46.87306 19.989125,46.96471 20.001475,47.08691 C20.013175,47.20976 20.019025,47.30141 20.019025,47.36446 C20.019025,47.48211 20.000175,47.58221 19.962475,47.66736 C19.913725,47.78111 19.838975,47.83766 19.736925,47.83766 C19.668025,47.83766 19.605625,47.81361 19.550375,47.76551 C19.495125,47.71741 19.467825,47.65501 19.467825,47.57896 C19.467825,47.55361 19.471725,47.51461 19.480175,47.46261 C19.488625,47.41061 19.493175,47.37226 19.493175,47.34626 C19.493175,47.26111 19.487975,47.13436 19.476275,46.96471 C19.465225,46.79571 19.460025,46.66831 19.460025,46.58186 C19.460025,46.33486 19.439875,45.98711 19.400225,45.53991 C19.358625,45.05696 19.335225,44.70921 19.330025,44.49926 L19.094075,44.50121 C18.716425,44.50121 18.418725,44.47391 18.202925,44.41801 C18.063175,44.38226 17.992975,44.29646 17.992975,44.16191 C17.992975,44.09106 18.015725,44.02866 18.060575,43.97536 C18.112575,43.91491 18.178875,43.88696 18.260125,43.89216 C18.320575,43.89606 18.459025,43.91101 18.674825,43.93896 C18.847725,43.95976 18.986825,43.97016 19.094075,43.97016 C19.198075,43.97016 19.354725,43.96756 19.565975,43.96366 C19.776575,43.95976 19.933875,43.95716 20.037225,43.95716 C20.170475,43.95716 20.368075,43.96626 20.629375,43.98576 C20.891325,44.00461 21.088275,44.01436 21.221525,44.01436 C21.295625,44.01436 21.358025,44.03971 21.408075,44.09041 C21.458125,44.14176 21.482825,44.20481 21.482825,44.28086 C21.482825,44.35496 21.458125,44.41801 21.408075,44.46871 C21.358025,44.52006 21.295625,44.54541 21.221525,44.54541" id="Fill-48" fill="#FEFEFE"></path>
                <path d="M22.799205,45.57631 C22.588605,45.57631 22.413105,45.65756 22.273355,45.82136 C22.133605,45.98451 22.028955,46.23021 21.959405,46.55846 L22.755005,46.18016 C23.067655,46.02741 23.290605,45.89611 23.423855,45.78366 C23.275005,45.64521 23.067005,45.57631 22.799205,45.57631 M22.869405,47.93646 C22.478755,47.93646 22.162855,47.83896 21.920405,47.64396 C21.657155,47.42816 21.524555,47.12591 21.524555,46.73721 C21.524555,46.28806 21.633105,45.91171 21.851505,45.60816 C22.087455,45.27601 22.404005,45.10961 22.799205,45.10961 C23.085855,45.10961 23.319855,45.15771 23.501855,45.25521 C23.724155,45.37416 23.835305,45.55811 23.835305,45.80511 C23.835305,45.97736 23.737805,46.13466 23.542805,46.27571 C23.456355,46.33811 23.273055,46.43496 22.993555,46.56561 L22.003605,47.03491 C22.100455,47.17856 22.221355,47.28646 22.365655,47.35926 C22.509305,47.43141 22.677655,47.46716 22.869405,47.46716 C22.988355,47.46716 23.128105,47.44506 23.288655,47.40021 C23.492755,47.34301 23.624055,47.26891 23.682555,47.17661 C23.741055,47.08366 23.804105,47.03816 23.871705,47.03816 C23.932155,47.03816 23.986105,47.06026 24.033555,47.10641 C24.081655,47.15256 24.105055,47.20521 24.105055,47.26566 C24.105055,47.45741 23.950355,47.62186 23.640955,47.76031 C23.377055,47.87796 23.119655,47.93646 22.869405,47.93646" id="Fill-50" fill="#FEFEFE"></path>
                <path d="M27.8564,48.032855 C27.7147,48.032855 27.63215,47.957455 27.60745,47.806655 C27.57625,47.616855 27.5457,47.349705 27.5145,47.003905 L27.4261,46.200505 C27.4092,46.081555 27.37995,45.964555 27.33835,45.851455 C27.2792,45.695455 27.2155,45.617455 27.1466,45.617455 C27.0829,45.617455 26.9633,45.672055 26.7891,45.780605 C26.62335,45.880705 26.5148,45.961305 26.46215,46.021755 C26.46085,46.184255 26.4654,46.346755 26.47515,46.509255 L26.55315,47.201505 C26.58565,47.474505 26.60255,47.698755 26.60255,47.877505 C26.60255,47.952905 26.5785,48.015955 26.53105,48.065355 C26.4836,48.114105 26.4225,48.138805 26.3484,48.138805 C26.2743,48.138805 26.2132,48.114105 26.16575,48.065355 C26.1183,48.015955 26.0949,47.952905 26.0949,47.877505 C26.0949,47.667555 26.07345,47.359455 26.0312,46.950605 C25.9883,46.542405 25.96815,46.233005 25.96815,46.024355 C25.96815,45.841705 25.94215,45.698705 25.89015,45.597305 C25.76925,45.652555 25.6464,45.742255 25.52225,45.866405 L25.2161,46.208305 C25.1888,46.249905 25.1446,46.304505 25.08415,46.372105 C25.08415,46.475455 25.07505,46.628205 25.05555,46.830355 C25.0367,47.032505 25.02695,47.181355 25.02695,47.278205 C25.02695,47.330205 25.0354,47.403005 25.0523,47.496605 C25.0679,47.588905 25.077,47.656505 25.077,47.698105 C25.077,47.769605 25.05035,47.828755 24.9977,47.877505 C24.94505,47.925605 24.8833,47.949655 24.81245,47.949655 C24.6168,47.949655 24.5193,47.728005 24.5193,47.284055 C24.5193,47.180055 24.52905,47.025355 24.5479,46.819955 C24.56675,46.613905 24.5765,46.459855 24.5765,46.355855 C24.5765,46.264855 24.56805,46.127055 24.5518,45.944405 C24.53555,45.761105 24.5271,45.623305 24.5271,45.529705 C24.5271,45.137755 24.6155,44.942105 24.79165,44.942105 C24.8586,44.942105 24.92035,44.970705 24.9769,45.029855 C25.0328,45.089005 25.06075,45.152055 25.06075,45.221605 C25.06075,45.254755 25.0562,45.305455 25.04775,45.374355 C25.0393,45.443905 25.0354,45.495905 25.0354,45.532305 L25.03995,45.804655 C25.1303,45.619405 25.26225,45.452355 25.43645,45.303505 C25.61065,45.153355 25.7595,45.079255 25.88235,45.079255 C26.1534,45.079255 26.33995,45.213805 26.442,45.483555 C26.5369,45.357455 26.65,45.262555 26.7813,45.199505 C26.9126,45.136455 27.06275,45.105255 27.2324,45.105255 C27.52035,45.105255 27.7173,45.259955 27.8226,45.571305 C27.8434,45.633705 27.8785,45.876155 27.92855,46.298655 C27.9773,46.596355 28.03905,47.091005 28.1151,47.783905 C28.12095,47.852805 28.09755,47.911305 28.04555,47.960055 C27.99355,48.008155 27.9305,48.032855 27.8564,48.032855" id="Fill-52" fill="#FEFEFE"></path>
                <path d="M29.9676,45.66198 C29.809,45.66198 29.66535,45.69773 29.53795,45.76793 C29.4463,45.81798 29.3306,45.91028 29.1902,46.04288 C29.21295,46.43483 29.224,46.84693 29.224,47.27788 C29.4125,47.35133 29.601,47.38708 29.7895,47.38708 C30.00465,47.38708 30.16975,47.30713 30.2835,47.14593 C30.3823,47.00618 30.43105,46.82483 30.43105,46.60253 C30.43105,46.28793 30.39335,46.05263 30.316,45.89598 C30.2393,45.73998 30.12295,45.66198 29.9676,45.66198 M29.7895,47.90838 C29.61595,47.90838 29.42615,47.88043 29.2188,47.82518 L29.2136,49.06343 C29.2136,49.14013 29.1902,49.20123 29.14275,49.24998 C29.0953,49.29808 29.0342,49.32278 28.9601,49.32278 C28.88535,49.32278 28.8249,49.29808 28.77745,49.24998 C28.72935,49.20123 28.70595,49.14013 28.70595,49.06343 L28.71375,48.02733 L28.71375,46.99383 C28.70855,46.61553 28.69555,46.27103 28.67475,45.96033 L28.63575,45.43383 C28.63575,45.31163 28.6585,45.20763 28.70335,45.12313 C28.75535,45.02108 28.8301,44.97038 28.9289,44.97038 C28.9965,44.97038 29.05305,44.99378 29.09855,45.04123 C29.14405,45.08933 29.16745,45.14718 29.16745,45.21608 C29.16745,45.23168 29.16485,45.26028 29.15965,45.30188 C29.15055,45.35518 29.1447,45.40458 29.14145,45.44943 C29.28965,45.34738 29.4333,45.27133 29.57175,45.21998 C29.70955,45.16928 29.8415,45.14393 29.9676,45.14393 C30.32185,45.14393 30.58055,45.30058 30.745,45.61583 C30.87435,45.86413 30.93935,46.19238 30.93935,46.60253 C30.93935,46.97563 30.83925,47.28308 30.63905,47.52423 C30.4265,47.78033 30.1431,47.90838 29.7895,47.90838" id="Fill-54" fill="#FEFEFE"></path>
                <path d="M32.66471,45.57631 C32.45411,45.57631 32.27861,45.65756 32.13886,45.82136 C31.99911,45.98451 31.89446,46.23021 31.82491,46.55846 L32.62051,46.18016 C32.93316,46.02741 33.15611,45.89611 33.28936,45.78366 C33.14051,45.64521 32.93251,45.57631 32.66471,45.57631 M32.73491,47.93646 C32.34426,47.93646 32.02836,47.83896 31.78656,47.64396 C31.52266,47.42816 31.39006,47.12591 31.39006,46.73721 C31.39006,46.28806 31.49861,45.91171 31.71701,45.60816 C31.95296,45.27601 32.26951,45.10961 32.66471,45.10961 C32.95136,45.10961 33.18536,45.15771 33.36736,45.25521 C33.58966,45.37416 33.70081,45.55811 33.70081,45.80511 C33.70081,45.97736 33.60331,46.13466 33.40831,46.27571 C33.32186,46.33811 33.13856,46.43496 32.85906,46.56561 L31.86911,47.03491 C31.96596,47.17856 32.08686,47.28646 32.23116,47.35926 C32.37481,47.43141 32.54316,47.46716 32.73491,47.46716 C32.85386,47.46716 32.99361,47.44506 33.15416,47.40021 C33.35826,47.34301 33.48956,47.26891 33.54806,47.17661 C33.60656,47.08366 33.66961,47.03816 33.73721,47.03816 C33.79766,47.03816 33.85161,47.06026 33.89906,47.10641 C33.94716,47.15256 33.97056,47.20521 33.97056,47.26566 C33.97056,47.45741 33.81586,47.62186 33.50646,47.76031 C33.24256,47.87796 32.98516,47.93646 32.73491,47.93646" id="Fill-56" fill="#FEFEFE"></path>
                <path d="M36.447645,45.903195 C36.435295,46.118345 36.349495,46.226245 36.188295,46.226245 C36.040095,46.226245 35.965345,46.141095 35.965345,45.970145 C35.965345,45.937645 35.962745,45.877195 35.958195,45.788795 L35.949745,45.571045 C35.677395,45.604195 35.458995,45.680895 35.295195,45.801795 C35.141145,45.914245 35.013095,46.083245 34.911045,46.309445 L34.916895,47.729695 C34.916895,47.903895 34.831095,47.991645 34.660145,47.991645 C34.508045,47.991645 34.431995,47.903895 34.431995,47.729695 L34.431995,45.910995 C34.431995,45.853795 34.433945,45.767995 34.438495,45.654245 C34.443045,45.539845 34.444995,45.454695 34.444995,45.397495 C34.444995,45.222645 34.521045,45.135545 34.673145,45.135545 C34.842145,45.135545 34.927945,45.279845 34.929895,45.565845 C35.260745,45.246695 35.628645,45.086795 36.032945,45.086795 C36.173345,45.086795 36.277345,45.139445 36.346895,45.244745 C36.415795,45.350045 36.450245,45.509295 36.450245,45.721845 C36.450245,45.810895 36.448945,45.871345 36.447645,45.903195" id="Fill-58" fill="#FEFEFE"></path>
                <path d="M38.46557,46.18757 C38.46557,46.11347 38.47012,46.03287 38.47987,45.94577 C38.48962,45.85802 38.50392,45.76572 38.52212,45.66692 C38.45842,45.63377 38.40382,45.60972 38.35767,45.59477 C38.31217,45.57852 38.27577,45.57137 38.24782,45.57137 C37.98002,45.57137 37.74927,45.68057 37.55492,45.89897 C37.36057,46.11802 37.26372,46.36892 37.26372,46.65427 C37.26372,46.93767 37.31377,47.14957 37.41387,47.29127 C37.51397,47.43297 37.66412,47.50382 37.86432,47.50382 C38.03072,47.50382 38.17112,47.47392 38.28682,47.41347 C38.34857,47.38032 38.43632,47.31467 38.54812,47.21652 C38.49287,46.75892 38.46557,46.41572 38.46557,46.18757 M39.00442,47.98872 C38.97192,47.98872 38.91212,47.95037 38.82567,47.87497 C38.74767,47.80347 38.68982,47.74107 38.65212,47.68582 C38.48637,47.77487 38.34012,47.84312 38.21402,47.88862 C38.08792,47.93477 37.98262,47.95752 37.89812,47.95752 C37.49382,47.95752 37.19937,47.84377 37.01477,47.61497 C36.84057,47.40112 36.75282,47.07287 36.75282,46.63087 C36.75282,46.21292 36.89712,45.85542 37.18442,45.55837 C37.47237,45.26132 37.81557,45.11312 38.21402,45.11312 C38.36482,45.11312 38.53317,45.15147 38.71972,45.22947 C38.95437,45.32632 39.07202,45.44267 39.07202,45.57852 C39.07202,45.62532 39.05447,45.66692 39.02002,45.70332 C39.00247,45.76897 38.98947,45.87687 38.98037,46.02767 C38.96997,46.17717 38.96477,46.37022 38.96282,46.60487 C38.96087,46.81937 38.97582,46.98837 39.00702,47.11317 C39.02392,47.18857 39.07852,47.34067 39.17017,47.56882 C39.18252,47.60002 39.20202,47.64552 39.22997,47.70597 L39.24557,47.75017 C39.24557,47.81972 39.22152,47.87692 39.17277,47.92112 C39.12467,47.96597 39.06812,47.98872 39.00442,47.98872" id="Fill-60" fill="#FEFEFE"></path>
                <path d="M41.42957,45.609915 C41.39317,45.609915 41.35027,45.608615 41.30152,45.604715 C41.25212,45.600815 41.20922,45.599515 41.17282,45.599515 C41.13317,45.599515 41.01552,45.612515 40.82052,45.638515 L40.86992,47.169915 L40.87252,47.283665 L40.87512,47.416265 C40.88227,47.793915 40.79127,47.983065 40.60342,47.983065 C40.53387,47.983065 40.47407,47.960315 40.42337,47.916115 C40.37202,47.871265 40.34602,47.815365 40.34602,47.747115 C40.34602,47.682115 40.34927,47.583315 40.35447,47.452015 C40.35967,47.320715 40.36162,47.221915 40.36162,47.156915 L40.31027,45.643715 C40.18417,45.638515 39.99242,45.623565 39.73502,45.599515 C39.58162,45.578715 39.50492,45.493565 39.50492,45.343415 C39.50492,45.267365 39.52767,45.204315 39.57447,45.154265 C39.62127,45.104215 39.68107,45.079515 39.75322,45.079515 L40.29727,45.123065 C40.29727,45.034665 40.29337,44.917665 40.28557,44.769465 C40.27777,44.621915 40.27387,44.515315 40.27387,44.449665 C40.27387,44.376865 40.29922,44.317065 40.34927,44.268965 C40.39932,44.221515 40.46042,44.198115 40.53322,44.198115 C40.68857,44.198115 40.77957,44.324865 40.80557,44.579015 C40.81012,44.643365 40.81272,44.720065 40.81272,44.809765 L40.80752,44.959265 L40.80557,45.120465 C41.01942,45.092515 41.14227,45.079515 41.17282,45.079515 C41.35222,45.079515 41.46987,45.087315 41.52512,45.105515 C41.63107,45.139315 41.68372,45.220565 41.68372,45.348615 C41.68372,45.424665 41.65967,45.487065 41.61222,45.536465 C41.56477,45.585215 41.50367,45.609915 41.42957,45.609915" id="Fill-62" fill="#FEFEFE"></path>
                <path d="M44.310825,46.304375 C44.310825,46.428525 44.311475,46.615725 44.313425,46.864025 C44.314725,47.112975 44.315375,47.299525 44.315375,47.424325 C44.315375,47.461375 44.318625,47.519225 44.324475,47.597225 C44.330975,47.674575 44.334225,47.732425 44.334225,47.770775 C44.334225,47.844875 44.308875,47.905975 44.258825,47.953425 C44.208775,48.000225 44.147675,48.024275 44.074875,48.024275 C43.941625,48.024275 43.857125,47.943025 43.821375,47.778575 C43.604925,47.891025 43.356625,47.946925 43.074525,47.946925 C42.848325,47.946925 42.661125,47.896875 42.512275,47.796775 C42.348475,47.686275 42.250975,47.524425 42.219775,47.312525 C42.152825,46.854925 42.118375,46.446725 42.118375,46.089225 C42.118375,45.853275 42.144375,45.584175 42.196375,45.281275 C42.220425,45.131125 42.302975,45.055725 42.442725,45.055725 C42.516825,45.055725 42.579225,45.079125 42.629275,45.126575 C42.679325,45.174675 42.704025,45.235125 42.704025,45.309875 C42.704025,45.389175 42.691675,45.515925 42.666325,45.690775 C42.641625,45.864325 42.629275,45.997575 42.629275,46.089225 C42.629275,46.377825 42.638375,46.624825 42.657875,46.830875 C42.676725,47.036275 42.705325,47.201375 42.743025,47.325525 C42.800225,47.356075 42.856125,47.380125 42.911375,47.397025 C42.967275,47.412625 43.021225,47.421075 43.074525,47.421075 C43.306575,47.421075 43.550975,47.384025 43.808375,47.309275 L43.805775,46.783425 L43.799925,46.281625 C43.799925,45.908525 43.816825,45.584175 43.849975,45.309875 C43.868175,45.150625 43.952025,45.071325 44.100875,45.071325 C44.174975,45.071325 44.237375,45.096025 44.287425,45.144125 C44.337475,45.192225 44.360875,45.252675 44.356975,45.324825 L44.310825,46.304375 Z" id="Fill-64" fill="#FEFEFE"></path>
                <path d="M46.971405,45.903195 C46.959055,46.118345 46.873255,46.226245 46.712055,46.226245 C46.563855,46.226245 46.489105,46.141095 46.489105,45.970145 C46.489105,45.937645 46.486505,45.877195 46.481955,45.788795 L46.473505,45.571045 C46.200505,45.604195 45.982755,45.680895 45.818955,45.801795 C45.664905,45.914245 45.536855,46.083245 45.434805,46.309445 L45.440655,47.729695 C45.440655,47.903895 45.354855,47.991645 45.183905,47.991645 C45.031805,47.991645 44.955755,47.903895 44.955755,47.729695 L44.955755,45.910995 C44.955755,45.853795 44.957705,45.767995 44.962255,45.654245 C44.966805,45.539845 44.968105,45.454695 44.968105,45.397495 C44.968105,45.222645 45.044805,45.135545 45.196905,45.135545 C45.365905,45.135545 45.451705,45.279845 45.453005,45.565845 C45.784505,45.246695 46.152405,45.086795 46.556705,45.086795 C46.697105,45.086795 46.801105,45.139445 46.870005,45.244745 C46.939555,45.350045 46.973355,45.509295 46.973355,45.721845 C46.973355,45.810895 46.972705,45.871345 46.971405,45.903195" id="Fill-66" fill="#FEFEFE"></path>
                <path d="M48.64496,45.57631 C48.43436,45.57631 48.25886,45.65756 48.11911,45.82136 C47.97936,45.98451 47.87471,46.23021 47.80516,46.55846 L48.60076,46.18016 C48.91341,46.02741 49.13636,45.89611 49.26961,45.78366 C49.12076,45.64521 48.91276,45.57631 48.64496,45.57631 M48.71516,47.93646 C48.32451,47.93646 48.00861,47.83896 47.76616,47.64396 C47.50291,47.42816 47.37031,47.12591 47.37031,46.73721 C47.37031,46.28806 47.47886,45.91171 47.69661,45.60816 C47.93321,45.27601 48.24976,45.10961 48.64496,45.10961 C48.93161,45.10961 49.16561,45.15771 49.34761,45.25521 C49.56991,45.37416 49.68106,45.55811 49.68106,45.80511 C49.68106,45.97736 49.58356,46.13466 49.38856,46.27571 C49.30211,46.33811 49.11881,46.43496 48.83931,46.56561 L47.84936,47.03491 C47.94621,47.17856 48.06646,47.28646 48.21141,47.35926 C48.35506,47.43141 48.52341,47.46716 48.71516,47.46716 C48.83411,47.46716 48.97386,47.44506 49.13441,47.40021 C49.33851,47.34301 49.46981,47.26891 49.52831,47.17661 C49.58681,47.08366 49.64986,47.03816 49.71746,47.03816 C49.77791,47.03816 49.83186,47.06026 49.87931,47.10641 C49.92741,47.15256 49.95081,47.20521 49.95081,47.26566 C49.95081,47.45741 49.79611,47.62186 49.48671,47.76031 C49.22281,47.87796 48.96541,47.93646 48.71516,47.93646" id="Fill-68" fill="#FEFEFE"></path>
                <path d="M53.409525,45.008795 C53.630525,44.826145 53.741025,44.644145 53.741025,44.465395 C53.741025,44.385445 53.728025,44.326295 53.700725,44.287295 C53.674075,44.248295 53.633775,44.228795 53.580475,44.228795 C53.549275,44.228795 53.502475,44.284695 53.439425,44.393895 C53.376375,44.503745 53.344525,44.576545 53.344525,44.612945 C53.344525,44.728645 53.366625,44.859945 53.409525,45.008795 M53.212575,45.715995 C52.915525,45.914895 52.713375,46.068295 52.606775,46.174895 C52.396825,46.383545 52.292825,46.603895 52.292825,46.835945 C52.292825,47.023795 52.368225,47.177845 52.518375,47.296795 C52.658125,47.405995 52.824525,47.459945 53.018225,47.459945 C53.367275,47.459945 53.668225,47.312395 53.922375,47.016645 C53.791075,46.821645 53.554475,46.388095 53.212575,45.715995 M52.883675,44.612945 C52.883675,44.440045 52.955175,44.258695 53.098825,44.068895 C53.252225,43.866745 53.412775,43.765345 53.580475,43.765345 C53.777425,43.765345 53.932125,43.834245 54.044575,43.972695 C54.149875,44.098795 54.202525,44.263245 54.202525,44.465395 C54.202525,44.815745 53.993875,45.147245 53.577875,45.459895 C53.711125,45.751745 53.915225,46.118345 54.192125,46.561645 C54.226575,46.465445 54.252575,46.367295 54.269475,46.265895 C54.297425,46.089095 54.316925,45.979245 54.329275,45.936995 C54.374125,45.795295 54.443025,45.723795 54.536625,45.723795 C54.608775,45.723795 54.665975,45.762795 54.707575,45.840145 C54.742025,45.904495 54.759575,45.975995 54.759575,46.055295 C54.759575,46.405645 54.669225,46.730645 54.489825,47.029645 C54.778425,47.482695 54.922075,47.751145 54.922075,47.835645 C54.922075,47.897395 54.898025,47.950045 54.848625,47.994895 C54.799875,48.039095 54.743325,48.060545 54.681575,48.060545 C54.603575,48.060545 54.537275,48.016995 54.482025,47.928595 L54.183675,47.413145 C53.837225,47.752445 53.448525,47.920795 53.018225,47.920795 C52.695175,47.920795 52.420225,47.821345 52.191425,47.622445 C51.951575,47.416395 51.831975,47.153145 51.831975,46.835945 C51.831975,46.500545 51.958725,46.195695 52.212225,45.920745 C52.359125,45.762145 52.626925,45.552845 53.015625,45.294145 C52.927225,45.060795 52.883675,44.833295 52.883675,44.612945" id="Fill-70" fill="#FEFEFE"></path>
                <path d="M60.46651,44.16711 C60.44051,44.23926 60.42751,44.34521 60.42751,44.48561 C60.42751,44.53761 60.42946,44.61366 60.43336,44.71636 C60.43596,44.81841 60.43856,44.89446 60.43856,44.94646 C60.43856,45.12001 60.42296,45.37676 60.39241,45.71931 C60.36251,46.06056 60.34756,46.31861 60.34756,46.49086 C60.34756,46.62216 60.35666,46.81911 60.37551,47.08106 C60.39436,47.34431 60.40411,47.54191 60.40411,47.67451 C60.40411,47.74536 60.38071,47.80581 60.33326,47.85391 C60.28581,47.90201 60.22601,47.92606 60.15516,47.92606 C60.08691,47.92606 60.02776,47.90201 59.97966,47.85391 C59.93156,47.80581 59.90686,47.74536 59.90686,47.67451 C59.90686,47.54191 59.89711,47.34431 59.87826,47.08106 C59.85941,46.81911 59.85031,46.62216 59.85031,46.49086 C59.85031,46.36476 59.85486,46.23736 59.86331,46.10736 C59.56691,46.11256 59.20161,46.15741 58.76676,46.23931 L57.67931,46.45251 C57.67931,46.60786 57.66371,46.82821 57.63186,47.11356 C57.60131,47.40021 57.58571,47.62121 57.58571,47.77851 C57.58571,47.84936 57.56166,47.90981 57.51421,47.95856 C57.46741,48.00796 57.40761,48.03266 57.33676,48.03266 C57.26591,48.03266 57.20676,48.00796 57.15931,47.95856 C57.11186,47.90981 57.08846,47.84936 57.08846,47.77851 C57.08846,47.59521 57.10276,47.32221 57.13396,46.95821 C57.16321,46.59486 57.17816,46.32186 57.17816,46.13856 C57.17816,46.04431 57.17556,45.90001 57.16841,45.70826 C57.16191,45.51716 57.15866,45.37221 57.15866,45.27601 C57.15866,45.13951 57.16646,44.93476 57.18401,44.66111 C57.20156,44.38681 57.21001,44.18141 57.21001,44.04556 C57.21001,43.97276 57.23341,43.91231 57.28086,43.86421 C57.32831,43.81611 57.38811,43.79141 57.45896,43.79141 C57.52916,43.79141 57.58831,43.81611 57.63576,43.86421 C57.68386,43.91231 57.70726,43.97276 57.70726,44.04556 C57.70726,44.18336 57.69816,44.39071 57.68061,44.66566 C57.66176,44.94126 57.65331,45.14861 57.65331,45.28641 L57.66826,45.94161 L58.77976,45.73166 C59.22436,45.64911 59.59811,45.60621 59.90166,45.60231 C59.92051,45.35531 59.93026,44.98351 59.93026,44.48561 C59.93026,44.35431 59.95171,44.22106 59.99461,44.08716 C60.05181,43.90191 60.13306,43.80896 60.23576,43.80896 C60.30141,43.80896 60.35991,43.83366 60.41256,43.88111 C60.46391,43.92856 60.48991,43.98901 60.48991,44.06116 C60.48991,44.08716 60.48146,44.12226 60.46651,44.16711" id="Fill-72" fill="#FEFEFE"></path>
                <path d="M63.243635,46.304375 C63.243635,46.428525 63.244285,46.615725 63.245585,46.864025 C63.247535,47.112975 63.248835,47.299525 63.248835,47.424325 C63.248835,47.461375 63.252085,47.519225 63.257285,47.597225 C63.263785,47.674575 63.266385,47.732425 63.266385,47.770775 C63.266385,47.844875 63.241685,47.905975 63.191635,47.953425 C63.141585,48.000225 63.080485,48.024275 63.007685,48.024275 C62.875085,48.024275 62.789935,47.943025 62.754185,47.778575 C62.537735,47.891025 62.288785,47.946925 62.007985,47.946925 C61.781135,47.946925 61.593935,47.896875 61.445735,47.796775 C61.281285,47.686275 61.183785,47.524425 61.153235,47.312525 C61.084985,46.854925 61.051185,46.446725 61.051185,46.089225 C61.051185,45.853275 61.077185,45.584175 61.129185,45.281275 C61.153235,45.131125 61.235785,45.055725 61.375535,45.055725 C61.449635,45.055725 61.511385,45.079125 61.562085,45.126575 C61.612135,45.174675 61.637485,45.235125 61.637485,45.309875 C61.637485,45.389175 61.625135,45.515925 61.599785,45.690775 C61.575085,45.864325 61.562085,45.997575 61.562085,46.089225 C61.562085,46.377825 61.571185,46.624825 61.590685,46.830875 C61.609535,47.036275 61.638135,47.201375 61.675835,47.325525 C61.733035,47.356075 61.789585,47.380125 61.844835,47.397025 C61.899435,47.412625 61.954685,47.421075 62.007985,47.421075 C62.238735,47.421075 62.483785,47.384025 62.741185,47.309275 L62.738585,46.783425 L62.733385,46.281625 C62.733385,45.908525 62.749635,45.584175 62.782135,45.309875 C62.801635,45.150625 62.885485,45.071325 63.033685,45.071325 C63.108435,45.071325 63.170185,45.096025 63.219585,45.144125 C63.270285,45.192225 63.293685,45.252675 63.289785,45.324825 L63.243635,46.304375 Z" id="Fill-74" fill="#FEFEFE"></path>
                <path d="M67.17919,48.032855 C67.03749,48.032855 66.95494,47.957455 66.93024,47.806655 C66.89904,47.616855 66.86784,47.349705 66.83729,47.003905 L66.74889,46.200505 C66.73199,46.081555 66.70274,45.964555 66.66114,45.851455 C66.60199,45.695455 66.53894,45.617455 66.46939,45.617455 C66.40569,45.617455 66.28609,45.672055 66.11189,45.780605 C65.94614,45.880705 65.83759,45.961305 65.78559,46.021755 C65.78429,46.184255 65.78819,46.346755 65.79859,46.509255 L65.87594,47.201505 C65.90844,47.474505 65.92534,47.698755 65.92534,47.877505 C65.92534,47.952905 65.90194,48.015955 65.85384,48.065355 C65.80639,48.114105 65.74529,48.138805 65.67119,48.138805 C65.59709,48.138805 65.53664,48.114105 65.48854,48.065355 C65.44174,48.015955 65.41769,47.952905 65.41769,47.877505 C65.41769,47.667555 65.39624,47.359455 65.35399,46.950605 C65.31174,46.542405 65.29094,46.233005 65.29094,46.024355 C65.29094,45.841705 65.26494,45.698705 65.21294,45.597305 C65.09204,45.652555 64.96984,45.742255 64.84504,45.866405 L64.53889,46.208305 C64.51159,46.249905 64.46739,46.304505 64.40694,46.372105 C64.40694,46.475455 64.39719,46.628205 64.37834,46.830355 C64.35949,47.032505 64.34974,47.181355 64.34974,47.278205 C64.34974,47.330205 64.35819,47.403005 64.37509,47.496605 C64.39069,47.588905 64.39914,47.656505 64.39914,47.698105 C64.39914,47.769605 64.37314,47.828755 64.32049,47.877505 C64.26784,47.925605 64.20609,47.949655 64.13524,47.949655 C63.94024,47.949655 63.84209,47.728005 63.84209,47.284055 C63.84209,47.180055 63.85184,47.025355 63.87069,46.819955 C63.88954,46.613905 63.89929,46.459855 63.89929,46.355855 C63.89929,46.264855 63.89084,46.127055 63.87459,45.944405 C63.85834,45.761105 63.84989,45.623305 63.84989,45.529705 C63.84989,45.137755 63.93829,44.942105 64.11444,44.942105 C64.18139,44.942105 64.24314,44.970705 64.29969,45.029855 C64.35559,45.089005 64.38354,45.152055 64.38354,45.221605 C64.38354,45.254755 64.37964,45.305455 64.37054,45.374355 C64.36209,45.443905 64.35819,45.495905 64.35819,45.532305 L64.36274,45.804655 C64.45244,45.619405 64.58439,45.452355 64.75924,45.303505 C64.93344,45.153355 65.08229,45.079255 65.20514,45.079255 C65.47619,45.079255 65.66274,45.213805 65.76414,45.483555 C65.85969,45.357455 65.97279,45.262555 66.10409,45.199505 C66.23539,45.136455 66.38554,45.105255 66.55454,45.105255 C66.84314,45.105255 67.04009,45.259955 67.14539,45.571305 C67.16619,45.633705 67.20194,45.876155 67.25134,46.298655 C67.30009,46.596355 67.36249,47.091005 67.43854,47.783905 C67.44374,47.852805 67.42034,47.911305 67.36834,47.960055 C67.31634,48.008155 67.25329,48.032855 67.17919,48.032855" id="Fill-76" fill="#FEFEFE"></path>
                <path d="M68.505515,44.537805 C68.422315,44.537805 68.351465,44.507905 68.290365,44.449405 C68.229915,44.390905 68.200015,44.319405 68.200015,44.236855 C68.200015,44.153655 68.229915,44.083455 68.290365,44.024305 C68.351465,43.965805 68.422315,43.936555 68.505515,43.936555 C68.588715,43.936555 68.659565,43.965805 68.719365,44.024305 C68.779165,44.083455 68.808415,44.153655 68.808415,44.236855 C68.808415,44.319405 68.779165,44.390905 68.719365,44.449405 C68.659565,44.507905 68.588715,44.537805 68.505515,44.537805 M68.622515,46.641205 C68.622515,46.745205 68.625115,46.899905 68.630965,47.105955 C68.636815,47.312655 68.640715,47.467355 68.640715,47.571355 C68.640715,47.646755 68.617315,47.709805 68.570515,47.757905 C68.523715,47.806005 68.462615,47.830055 68.386565,47.830055 C68.312465,47.830055 68.250715,47.806005 68.203915,47.757905 C68.155815,47.709805 68.132415,47.646755 68.132415,47.571355 C68.132415,47.467355 68.129815,47.312655 68.123315,47.105955 C68.117465,46.899905 68.114215,46.745205 68.114215,46.641205 C68.114215,46.478705 68.123315,46.276555 68.140215,46.034105 C68.157115,45.791005 68.166215,45.588205 68.166215,45.426355 C68.166215,45.348355 68.189615,45.285305 68.237715,45.237205 C68.284515,45.189105 68.346265,45.164405 68.419715,45.164405 C68.493815,45.164405 68.554915,45.189105 68.602365,45.237205 C68.650465,45.285305 68.674515,45.348355 68.674515,45.426355 C68.674515,45.588205 68.665415,45.791005 68.648515,46.034105 C68.630315,46.276555 68.622515,46.478705 68.622515,46.641205" id="Fill-78" fill="#FEFEFE"></path>
                <path d="M70.73352,45.59724 C70.44362,45.59724 70.22652,45.68304 70.08027,45.85464 C69.93532,46.02689 69.86317,46.28559 69.86317,46.63074 C69.86317,46.85369 69.94182,47.04609 70.09977,47.20599 C70.25902,47.36719 70.44362,47.44714 70.65617,47.44714 C70.80112,47.44714 70.92397,47.42049 71.02407,47.36719 C71.08192,47.33534 71.17877,47.26384 71.31202,47.15204 C71.33737,47.12864 71.36207,47.10199 71.38612,47.07144 L71.37832,46.62294 L71.38157,46.32264 L71.38612,46.01714 C71.32047,45.87739 71.23402,45.77274 71.12482,45.70189 C71.01692,45.63234 70.88497,45.59724 70.73352,45.59724 M71.88467,45.52964 C71.86322,45.78379 71.85347,46.03729 71.85347,46.29079 C71.85347,46.86604 71.87947,47.30154 71.93342,47.59469 C71.93732,47.61874 71.93862,47.63889 71.93862,47.65449 C71.93862,47.72339 71.91392,47.77994 71.86582,47.82544 C71.81772,47.86964 71.76117,47.89304 71.69747,47.89304 C71.59022,47.89304 71.51157,47.81504 71.46152,47.65969 C71.33737,47.75069 71.20802,47.81959 71.07412,47.86704 C70.94022,47.91319 70.80112,47.93659 70.65617,47.93659 C70.29867,47.93659 70.00227,47.81764 69.76762,47.57909 C69.52582,47.33534 69.40492,47.02269 69.40492,46.64114 C69.40492,46.17964 69.52712,45.81044 69.77152,45.53224 C70.01592,45.25469 70.33312,45.11559 70.72312,45.11559 C70.92397,45.11559 71.07802,45.14679 71.18722,45.20789 L71.43032,45.38729 C71.45437,44.66059 71.48362,44.17114 71.51612,43.91829 C71.53822,43.76489 71.61687,43.68754 71.75142,43.68754 C71.90937,43.68754 71.98737,43.77139 71.98737,43.93909 C71.98737,44.17829 71.95357,44.70934 71.88467,45.52964" id="Fill-80" fill="#FEFEFE"></path>
                <path d="M73.109465,44.537805 C73.026265,44.537805 72.955415,44.507905 72.894315,44.449405 C72.833215,44.390905 72.803315,44.319405 72.803315,44.236855 C72.803315,44.153655 72.833215,44.083455 72.894315,44.024305 C72.955415,43.965805 73.026265,43.936555 73.109465,43.936555 C73.192665,43.936555 73.263515,43.965805 73.323315,44.024305 C73.383115,44.083455 73.412365,44.153655 73.412365,44.236855 C73.412365,44.319405 73.383115,44.390905 73.323315,44.449405 C73.263515,44.507905 73.192665,44.537805 73.109465,44.537805 M73.226465,46.641205 C73.226465,46.745205 73.229065,46.899905 73.234915,47.105955 C73.240765,47.312655 73.244015,47.467355 73.244015,47.571355 C73.244015,47.646755 73.220615,47.709805 73.174465,47.757905 C73.127665,47.806005 73.066565,47.830055 72.989865,47.830055 C72.915765,47.830055 72.854665,47.806005 72.807865,47.757905 C72.759765,47.709805 72.736365,47.646755 72.736365,47.571355 C72.736365,47.467355 72.733765,47.312655 72.726615,47.105955 C72.720765,46.899905 72.717515,46.745205 72.717515,46.641205 C72.717515,46.478705 72.726615,46.276555 72.744165,46.034105 C72.761065,45.791005 72.770165,45.588205 72.770165,45.426355 C72.770165,45.348355 72.793565,45.285305 72.841015,45.237205 C72.888465,45.189105 72.949565,45.164405 73.023665,45.164405 C73.097765,45.164405 73.158865,45.189105 73.206315,45.237205 C73.253765,45.285305 73.277815,45.348355 73.277815,45.426355 C73.277815,45.588205 73.268715,45.791005 73.251815,46.034105 C73.234265,46.276555 73.226465,46.478705 73.226465,46.641205" id="Fill-82" fill="#FEFEFE"></path>
                <path d="M75.835175,45.609915 C75.798775,45.609915 75.755875,45.608615 75.707125,45.604715 C75.657725,45.600815 75.614825,45.599515 75.577775,45.599515 C75.538775,45.599515 75.421125,45.612515 75.226125,45.638515 L75.275525,47.169915 L75.278125,47.283665 L75.280725,47.416265 C75.287225,47.793915 75.196875,47.983065 75.009025,47.983065 C74.939475,47.983065 74.879025,47.960315 74.828325,47.916115 C74.777625,47.871265 74.752275,47.815365 74.752275,47.747115 C74.752275,47.682115 74.754875,47.583315 74.760075,47.452015 C74.765275,47.320715 74.767225,47.221915 74.767225,47.156915 L74.715225,45.643715 C74.589775,45.638515 74.398025,45.623565 74.140625,45.599515 C73.986575,45.578715 73.909875,45.493565 73.909875,45.343415 C73.909875,45.267365 73.933275,45.204315 73.980075,45.154265 C74.026875,45.104215 74.086675,45.079515 74.158825,45.079515 L74.702875,45.123065 C74.702875,45.034665 74.698975,44.917665 74.690525,44.769465 C74.683375,44.621915 74.680125,44.515315 74.680125,44.449665 C74.680125,44.376865 74.704825,44.317065 74.754875,44.268965 C74.804925,44.221515 74.866025,44.198115 74.938175,44.198115 C75.093525,44.198115 75.184525,44.324865 75.210525,44.579015 C75.216375,44.643365 75.218325,44.720065 75.218325,44.809765 L75.213125,44.959265 L75.210525,45.120465 C75.424375,45.092515 75.547875,45.079515 75.577775,45.079515 C75.757825,45.079515 75.875475,45.087315 75.930725,45.105515 C76.036675,45.139315 76.088675,45.220565 76.088675,45.348615 C76.088675,45.424665 76.065275,45.487065 76.017825,45.536465 C75.970375,45.585215 75.909275,45.609915 75.835175,45.609915" id="Fill-84" fill="#FEFEFE"></path>
                <path d="M78.86112,45.506435 L77.96477,47.444085 C77.74377,47.915985 77.57477,48.310535 77.45712,48.628385 L77.28617,49.130835 C77.24132,49.255635 77.16332,49.317385 77.05282,49.317385 C76.98002,49.317385 76.91762,49.293335 76.86497,49.246535 C76.81232,49.199085 76.78632,49.139935 76.78632,49.068435 C76.78632,48.895535 76.97287,48.395685 77.34532,47.568885 L76.41777,45.783985 L76.30142,45.594835 C76.25462,45.515535 76.23122,45.448585 76.23122,45.395285 C76.23122,45.324435 76.25917,45.262035 76.31312,45.208085 C76.36707,45.155435 76.42882,45.128135 76.49577,45.128135 C76.57507,45.128135 76.63682,45.158035 76.67972,45.219135 C76.97352,45.626685 77.28812,46.207135 77.62547,46.959835 L78.00897,46.066085 C78.14677,45.756685 78.28002,45.491485 78.40807,45.268535 C78.46267,45.171035 78.53547,45.122935 78.62582,45.122935 C78.69602,45.122935 78.75842,45.148285 78.81367,45.197685 C78.86762,45.248385 78.89492,45.307535 78.89492,45.377085 C78.89492,45.414785 78.88322,45.458335 78.86112,45.506435" id="Fill-86" fill="#FEFEFE"></path>
                <path d="M83.06389,46.304375 C83.06389,46.428525 83.06389,46.615725 83.06584,46.864025 C83.06779,47.112975 83.06909,47.299525 83.06909,47.424325 C83.06909,47.461375 83.07234,47.519225 83.07754,47.597225 C83.08339,47.674575 83.08664,47.732425 83.08664,47.770775 C83.08664,47.844875 83.06194,47.905975 83.01189,47.953425 C82.96184,48.000225 82.90009,48.024275 82.82794,48.024275 C82.69469,48.024275 82.61019,47.943025 82.57379,47.778575 C82.35734,47.891025 82.10904,47.946925 81.82824,47.946925 C81.60139,47.946925 81.41419,47.896875 81.26534,47.796775 C81.10089,47.686275 81.00339,47.524425 80.97284,47.312525 C80.90524,46.854925 80.87144,46.446725 80.87144,46.089225 C80.87144,45.853275 80.89744,45.584175 80.94944,45.281275 C80.97349,45.131125 81.05539,45.055725 81.19579,45.055725 C81.26989,45.055725 81.33164,45.079125 81.38169,45.126575 C81.43174,45.174675 81.45709,45.235125 81.45709,45.309875 C81.45709,45.389175 81.44474,45.515925 81.42004,45.690775 C81.39534,45.864325 81.38169,45.997575 81.38169,46.089225 C81.38169,46.377825 81.39144,46.624825 81.41094,46.830875 C81.42914,47.036275 81.45774,47.201375 81.49609,47.325525 C81.55329,47.356075 81.60984,47.380125 81.66509,47.397025 C81.71969,47.412625 81.77429,47.421075 81.82824,47.421075 C82.05899,47.421075 82.30339,47.384025 82.56144,47.309275 L82.55884,46.783425 L82.55364,46.281625 C82.55364,45.908525 82.56989,45.584175 82.60239,45.309875 C82.62124,45.150625 82.70509,45.071325 82.85394,45.071325 C82.92804,45.071325 82.99044,45.096025 83.03984,45.144125 C83.08989,45.192225 83.11329,45.252675 83.11004,45.324825 L83.06389,46.304375 Z" id="Fill-88" fill="#FEFEFE"></path>
                <path d="M85.69496,48.00107 C85.54611,48.00107 85.46356,47.91982 85.44406,47.75797 L85.37191,47.19052 C85.34786,46.98837 85.33486,46.79922 85.33486,46.62307 C85.33486,46.57497 85.33811,46.49307 85.34461,46.37672 C85.35046,46.26102 85.35371,46.17912 85.35371,46.13102 C85.35371,45.75792 85.28416,45.57137 85.14571,45.57137 C84.95266,45.57137 84.76741,45.68577 84.59191,45.91587 C84.43331,46.12452 84.30851,46.38907 84.21881,46.70887 C84.21491,46.77582 84.20711,46.86032 84.19541,46.96237 C84.18501,47.04882 84.17981,47.13267 84.17981,47.21392 C84.17981,47.26527 84.18501,47.34262 84.19541,47.44662 C84.20581,47.55062 84.21101,47.62862 84.21101,47.67997 C84.21101,47.75797 84.18761,47.82102 84.13951,47.86912 C84.09206,47.91722 84.03096,47.94192 83.95686,47.94192 C83.88081,47.94192 83.81971,47.91722 83.77291,47.86912 C83.72676,47.82102 83.70336,47.75797 83.70336,47.67997 C83.70336,47.62862 83.69751,47.55062 83.68646,47.44662 C83.67541,47.34262 83.66956,47.26527 83.66956,47.21392 C83.66956,47.03647 83.68126,46.78947 83.70661,46.47357 C83.73131,46.15897 83.74496,45.91262 83.74496,45.73452 C83.74496,45.67927 83.74171,45.59737 83.73521,45.48817 C83.73001,45.37962 83.72676,45.29707 83.72676,45.24247 C83.72676,45.16837 83.75146,45.10727 83.80021,45.05982 C83.84961,45.01172 83.91071,44.98832 83.98286,44.98832 C84.14146,44.98832 84.22921,45.10012 84.24481,45.32502 L84.25196,45.62857 C84.54316,45.24117 84.84086,45.04812 85.14571,45.04812 C85.42196,45.04812 85.61501,45.17032 85.72421,45.41342 C85.79831,45.57592 85.83926,45.81577 85.84511,46.13362 L85.84511,46.39492 L85.84316,46.63542 C85.84316,46.77907 85.86201,46.96432 85.89906,47.19182 C85.93611,47.41867 85.95431,47.60392 85.95431,47.74497 C85.95431,47.82102 85.92961,47.88277 85.88086,47.93022 C85.83146,47.97767 85.76906,48.00107 85.69496,48.00107" id="Fill-90" fill="#FEFEFE"></path>
                <path d="M87.72179,45.59724 C87.43189,45.59724 87.21479,45.68304 87.06854,45.85464 C86.92359,46.02689 86.85144,46.28559 86.85144,46.63074 C86.85144,46.85369 86.93009,47.04609 87.08804,47.20599 C87.24729,47.36719 87.43189,47.44714 87.64444,47.44714 C87.78939,47.44714 87.91224,47.42049 88.01169,47.36719 C88.07019,47.33534 88.16704,47.26384 88.29964,47.15204 C88.32564,47.12864 88.35034,47.10199 88.37439,47.07144 L88.36659,46.62294 L88.36984,46.32264 L88.37439,46.01714 C88.30874,45.87739 88.22229,45.77274 88.11309,45.70189 C88.00454,45.63234 87.87324,45.59724 87.72179,45.59724 M88.87294,45.52964 C88.85084,45.78379 88.84109,46.03729 88.84109,46.29079 C88.84109,46.86604 88.86774,47.30154 88.92169,47.59469 C88.92494,47.61874 88.92689,47.63889 88.92689,47.65449 C88.92689,47.72339 88.90219,47.77994 88.85409,47.82544 C88.80599,47.86964 88.74944,47.89304 88.68509,47.89304 C88.57784,47.89304 88.49984,47.81504 88.44979,47.65969 C88.32564,47.75069 88.19629,47.81959 88.06239,47.86704 C87.92849,47.91319 87.78939,47.93659 87.64444,47.93659 C87.28694,47.93659 86.99054,47.81764 86.75524,47.57909 C86.51409,47.33534 86.39254,47.02269 86.39254,46.64114 C86.39254,46.17964 86.51539,45.81044 86.75979,45.53224 C87.00419,45.25469 87.32074,45.11559 87.71139,45.11559 C87.91224,45.11559 88.06629,45.14679 88.17484,45.20789 L88.41859,45.38729 C88.44264,44.66059 88.47124,44.17114 88.50439,43.91829 C88.52649,43.76489 88.60514,43.68754 88.73969,43.68754 C88.89764,43.68754 88.97564,43.77139 88.97564,43.93909 C88.97564,44.17829 88.94119,44.70934 88.87294,45.52964" id="Fill-92" fill="#FEFEFE"></path>
                <path d="M90.7426,45.57631 C90.532,45.57631 90.3565,45.65756 90.2161,45.82136 C90.077,45.98451 89.9717,46.23021 89.9028,46.55846 L90.69905,46.18016 C91.01105,46.02741 91.234,45.89611 91.3666,45.78366 C91.21775,45.64521 91.0104,45.57631 90.7426,45.57631 M90.81215,47.93646 C90.42215,47.93646 90.10625,47.83896 89.8638,47.64396 C89.5999,47.42816 89.46795,47.12591 89.46795,46.73721 C89.46795,46.28806 89.5765,45.91171 89.79425,45.60816 C90.03085,45.27601 90.34675,45.10961 90.7426,45.10961 C91.0286,45.10961 91.26325,45.15771 91.4446,45.25521 C91.66755,45.37416 91.7787,45.55811 91.7787,45.80511 C91.7787,45.97736 91.6812,46.13466 91.48685,46.27571 C91.39975,46.33811 91.21645,46.43496 90.93695,46.56561 L89.947,47.03491 C90.04385,47.17856 90.16345,47.28646 90.3084,47.35926 C90.4527,47.43141 90.62105,47.46716 90.81215,47.46716 C90.93175,47.46716 91.0715,47.44506 91.23205,47.40021 C91.43615,47.34301 91.56745,47.26891 91.62595,47.17661 C91.68445,47.08366 91.74815,47.03816 91.8151,47.03816 C91.87555,47.03816 91.9295,47.06026 91.97695,47.10641 C92.0244,47.15256 92.04845,47.20521 92.04845,47.26566 C92.04845,47.45741 91.89375,47.62186 91.585,47.76031 C91.32045,47.87796 91.0624,47.93646 90.81215,47.93646" id="Fill-94" fill="#FEFEFE"></path>
                <path d="M94.52521,45.903195 C94.51221,46.118345 94.42706,46.226245 94.26586,46.226245 C94.11701,46.226245 94.04291,46.141095 94.04291,45.970145 C94.04291,45.937645 94.04096,45.877195 94.03511,45.788795 L94.02731,45.571045 C93.75431,45.604195 93.53656,45.680895 93.37211,45.801795 C93.21806,45.914245 93.09001,46.083245 92.98926,46.309445 L92.99381,47.729695 C92.99381,47.903895 92.90866,47.991645 92.73706,47.991645 C92.58561,47.991645 92.50891,47.903895 92.50891,47.729695 L92.50891,45.910995 C92.50891,45.853795 92.51151,45.767995 92.51541,45.654245 C92.51996,45.539845 92.52256,45.454695 92.52256,45.397495 C92.52256,45.222645 92.59796,45.135545 92.75071,45.135545 C92.91906,45.135545 93.00486,45.279845 93.00681,45.565845 C93.33831,45.246695 93.70556,45.086795 94.10986,45.086795 C94.25026,45.086795 94.35491,45.139445 94.42381,45.244745 C94.49336,45.350045 94.52781,45.509295 94.52781,45.721845 C94.52781,45.810895 94.52716,45.871345 94.52521,45.903195" id="Fill-96" fill="#FEFEFE"></path>
                <path d="M97.814535,47.98079 C97.461585,47.98079 97.165185,47.87354 96.929235,47.65969 C96.680935,47.43479 96.556135,47.13839 96.556135,46.77114 C96.556135,46.42079 96.672485,46.05874 96.905835,45.68499 C97.165185,45.27094 97.456385,45.06359 97.781385,45.06359 C97.951035,45.06359 98.140185,45.10324 98.348835,45.18189 C98.613385,45.28459 98.745335,45.40939 98.745335,45.55629 C98.745335,45.62129 98.723235,45.67979 98.680335,45.73049 C98.637435,45.78119 98.584135,45.80654 98.519785,45.80654 C98.469735,45.80654 98.425535,45.79159 98.389135,45.76169 C98.351435,45.73179 98.316335,45.70124 98.281885,45.67199 C98.179835,45.59139 98.012785,45.55109 97.781385,45.55109 C97.605235,45.55109 97.430385,45.70774 97.258135,46.02169 C97.100185,46.31094 97.022185,46.55989 97.022185,46.77114 C97.022185,46.99864 97.099535,47.17869 97.256185,47.30934 C97.400485,47.43219 97.587035,47.49329 97.814535,47.49329 C97.918535,47.49329 98.029035,47.46599 98.146685,47.41074 L98.447635,47.25019 C98.498985,47.22224 98.536035,47.20924 98.558785,47.20924 C98.622485,47.20924 98.677735,47.23459 98.724535,47.28529 C98.771335,47.33599 98.794085,47.39449 98.794085,47.45949 C98.794085,47.58624 98.661485,47.70779 98.395635,47.82544 C98.162285,47.92879 97.968585,47.98079 97.814535,47.98079" id="Fill-98" fill="#FEFEFE"></path>
                <path d="M100.497085,45.65691 C100.242935,45.65496 100.045335,45.77586 99.903635,46.01961 C99.791185,46.21461 99.735285,46.43756 99.735285,46.68781 C99.735285,46.93871 99.804185,47.13306 99.940035,47.27346 C100.053785,47.38916 100.187685,47.44701 100.341735,47.44701 C100.521135,47.44701 100.675185,47.38136 100.805835,47.25006 C100.952085,47.10511 101.029435,46.90881 101.038535,46.66181 C101.062585,45.99426 100.881885,45.65821 100.497085,45.65691 M100.341735,47.97026 C100.050535,47.97026 99.802235,47.86366 99.592285,47.64851 C99.360235,47.41061 99.237385,47.09016 99.225035,46.68781 C99.213985,46.29781 99.312785,45.95396 99.520135,45.65691 C99.762585,45.30591 100.099285,45.13106 100.530885,45.13106 C100.876035,45.13106 101.137335,45.28901 101.316085,45.60491 C101.457135,45.86036 101.525385,46.16781 101.520185,46.52726 C101.514985,46.91076 101.414885,47.23836 101.219235,47.50941 C100.998235,47.81686 100.705735,47.97026 100.341735,47.97026" id="Fill-100" fill="#FEFEFE"></path>
                <path d="M104.146965,48.00107 C103.998115,48.00107 103.914915,47.91982 103.895415,47.75797 L103.823265,47.19052 C103.799215,46.98837 103.786865,46.79922 103.786865,46.62307 C103.786865,46.57497 103.789465,46.49307 103.796615,46.37672 C103.802465,46.26102 103.805715,46.17912 103.805715,46.13102 C103.805715,45.75792 103.736165,45.57137 103.597715,45.57137 C103.404015,45.57137 103.219415,45.68577 103.043265,45.91587 C102.885315,46.12452 102.760515,46.38907 102.670815,46.70887 C102.666915,46.77582 102.659115,46.86032 102.646765,46.96237 C102.637015,47.04882 102.631165,47.13267 102.631165,47.21392 C102.631165,47.26527 102.637015,47.34262 102.646765,47.44662 C102.657165,47.55062 102.663015,47.62862 102.663015,47.67997 C102.663015,47.75797 102.638965,47.82102 102.590865,47.86912 C102.544065,47.91722 102.482315,47.94192 102.408865,47.94192 C102.332815,47.94192 102.271065,47.91722 102.224915,47.86912 C102.178765,47.82102 102.154715,47.75797 102.154715,47.67997 C102.154715,47.62862 102.149515,47.55062 102.137815,47.44662 C102.127415,47.34262 102.120915,47.26527 102.120915,47.21392 C102.120915,47.03647 102.133265,46.78947 102.158615,46.47357 C102.183315,46.15897 102.196315,45.91262 102.196315,45.73452 C102.196315,45.67927 102.193715,45.59737 102.186565,45.48817 C102.181365,45.37962 102.178765,45.29707 102.178765,45.24247 C102.178765,45.16837 102.203465,45.10727 102.252215,45.05982 C102.301615,45.01172 102.362065,44.98832 102.434215,44.98832 C102.593465,44.98832 102.680565,45.10012 102.696815,45.32502 L102.703965,45.62857 C102.994515,45.24117 103.292865,45.04812 103.597715,45.04812 C103.873965,45.04812 104.067015,45.17032 104.175565,45.41342 C104.249665,45.57592 104.290615,45.81577 104.297115,46.13362 L104.297115,46.39492 L104.295165,46.63542 C104.295165,46.77907 104.314015,46.96432 104.350415,47.19182 C104.388115,47.41867 104.405665,47.60392 104.405665,47.74497 C104.405665,47.82102 104.380965,47.88277 104.332215,47.93022 C104.282815,47.97767 104.221065,48.00107 104.146965,48.00107" id="Fill-102" fill="#FEFEFE"></path>
                <path d="M109.216835,45.858735 C109.204485,46.074535 109.118685,46.182435 108.958135,46.182435 C108.809285,46.182435 108.735185,46.096635 108.735185,45.926335 C108.735185,45.893185 108.732585,45.832735 108.727385,45.744335 L108.719585,45.526585 C108.445935,45.559735 108.228185,45.636435 108.064385,45.757335 C107.909685,45.870435 107.782285,46.038785 107.680885,46.265635 L107.686085,47.685885 C107.686085,47.860085 107.600285,47.947185 107.429335,47.947185 C107.277235,47.947185 107.201185,47.860085 107.201185,47.685885 L107.201185,45.866535 C107.201185,45.809335 107.203135,45.723535 107.207685,45.609785 C107.211585,45.495385 107.214185,45.410885 107.214185,45.353685 C107.214185,45.178835 107.290235,45.091085 107.442335,45.091085 C107.611335,45.091085 107.696485,45.235385 107.698435,45.521385 C108.030585,45.202235 108.397835,45.042335 108.802135,45.042335 C108.942535,45.042335 109.046535,45.094985 109.116085,45.200285 C109.184985,45.305585 109.219435,45.464835 109.219435,45.677385 C109.219435,45.766435 109.218785,45.827535 109.216835,45.858735" id="Fill-104" fill="#FEFEFE"></path>
                <path d="M110.57267,45.778135 C110.31852,45.776185 110.12092,45.897735 109.97922,46.141485 C109.86677,46.335835 109.81022,46.558785 109.81022,46.809685 C109.81022,47.059935 109.87912,47.254285 110.01562,47.394685 C110.12937,47.510385 110.26262,47.568235 110.41732,47.568235 C110.59672,47.568235 110.75077,47.502585 110.88077,47.371285 C111.02702,47.226985 111.10502,47.030685 111.11412,46.783685 C111.13817,46.115485 110.95747,45.780085 110.57267,45.778135 M110.41732,48.092135 C110.12612,48.092135 109.87717,47.985535 109.66787,47.770385 C109.43517,47.532485 109.31232,47.212035 109.30062,46.809685 C109.28957,46.419035 109.38837,46.075185 109.59572,45.778135 C109.83752,45.427785 110.17422,45.252285 110.60647,45.252285 C110.95162,45.252285 111.21292,45.410885 111.39102,45.726135 C111.53272,45.981585 111.60097,46.289685 111.59512,46.648485 C111.59057,47.032635 111.49047,47.360235 111.29482,47.631285 C111.07382,47.938085 110.78067,48.092135 110.41732,48.092135" id="Fill-106" fill="#FEFEFE"></path>
                <path d="M112.89343,45.902545 L112.85443,47.189545 C112.85443,47.326695 112.84793,47.526895 112.83363,47.790795 C112.81673,47.963695 112.73223,48.050795 112.58013,48.050795 C112.41113,48.050795 112.32598,47.962395 112.32598,47.786245 C112.32598,47.576945 112.33573,47.262995 112.35458,46.843745 C112.37343,46.425795 112.38318,46.111845 112.38318,45.902545 C112.38318,45.629545 112.38773,45.317545 112.39618,44.966545 C112.40463,44.614895 112.40918,44.302245 112.40918,44.029245 C112.40918,43.856995 112.49368,43.770545 112.66333,43.770545 C112.83363,43.770545 112.91943,43.856995 112.91943,44.029245 C112.91943,44.302245 112.91553,44.614895 112.90708,44.966545 C112.89798,45.317545 112.89343,45.629545 112.89343,45.902545" id="Fill-108" fill="#FEFEFE"></path>
                <path d="M106.58063,45.609915 C106.54423,45.609915 106.50133,45.608615 106.45258,45.604715 C106.40318,45.600815 106.36028,45.599515 106.32323,45.599515 C106.28423,45.599515 106.16658,45.612515 105.97158,45.638515 L106.02098,47.169915 L106.02358,47.283665 L106.02618,47.416265 C106.03268,47.793915 105.94233,47.983065 105.75448,47.983065 C105.68493,47.983065 105.62448,47.960315 105.57378,47.916115 C105.52308,47.871265 105.49773,47.815365 105.49773,47.747115 C105.49773,47.682115 105.50033,47.583315 105.50553,47.452015 C105.51073,47.320715 105.51268,47.221915 105.51268,47.156915 L105.46068,45.643715 C105.33523,45.638515 105.14348,45.623565 104.88608,45.599515 C104.73203,45.578715 104.65533,45.493565 104.65533,45.343415 C104.65533,45.267365 104.67873,45.204315 104.72553,45.154265 C104.77233,45.104215 104.83213,45.079515 104.90428,45.079515 L105.44833,45.123065 C105.44833,45.034665 105.44443,44.917665 105.43598,44.769465 C105.42883,44.621915 105.42558,44.515315 105.42558,44.449665 C105.42558,44.376865 105.45028,44.317065 105.50033,44.268965 C105.55038,44.221515 105.61148,44.198115 105.68363,44.198115 C105.83898,44.198115 105.92998,44.324865 105.95598,44.579015 C105.96118,44.643365 105.96378,44.720065 105.96378,44.809765 L105.95858,44.959265 L105.95598,45.120465 C106.16983,45.092515 106.29333,45.079515 106.32323,45.079515 C106.50328,45.079515 106.62093,45.087315 106.67618,45.105515 C106.78213,45.139315 106.83413,45.220565 106.83413,45.348615 C106.83413,45.424665 106.81073,45.487065 106.76328,45.536465 C106.71583,45.585215 106.65473,45.609915 106.58063,45.609915" id="Fill-110" fill="#FEFEFE"></path>
            </g>
        </g>
    </g>
</svg>